<svg width="512" height="512" viewBox="0 0 512 512" fill="none" xmlns="http://www.w3.org/2000/svg">
  <defs>
    <linearGradient id="shield_grad" x1="256" y1="40" x2="256" y2="472" gradientUnits="userSpaceOnUse">
      <stop stop-color="#0071E3"/>
      <stop offset="1" stop-color="#001529"/>
    </linearGradient>
    <filter id="glow" x="-20%" y="-20%" width="140%" height="140%" filterUnits="userSpaceOnUse">
      <feGaussianBlur stdDeviation="15" result="blur"/>
      <feComposite in="SourceGraphic" in2="blur" operator="over"/>
    </filter>
  </defs>
  <path d="M256 40C180 40 100 80 60 120C60 280 100 400 256 472C412 400 452 280 452 120C412 80 332 40 256 40Z" fill="url(#shield_grad)"/>
  <path d="M256 60C190 60 120 100 80 135C80 270 115 380 256 445C397 380 432 270 432 135C392 100 322 60 256 60Z" fill="white" fill-opacity="0.1"/>
  <rect x="236" y="186" width="40" height="140" rx="8" fill="white" filter="url(#glow)"/>
  <rect x="186" y="236" width="140" height="40" rx="8" fill="white" filter="url(#glow)"/>
</svg>
